<svg width="272" height="236" viewBox="0 0 272 236" fill="none" xmlns="http://www.w3.org/2000/svg">
<g filter="url(#filter0_d_40_2)">
<mask id="mask0_40_2" style="mask-type:alpha" maskUnits="userSpaceOnUse" x="8" y="0" width="257" height="210">
<path d="M8 209.087C9.62895 208.592 11.3216 208.107 13.0754 207.633C21.7087 205.299 31.8253 203.218 43.1283 201.452C60.14 198.794 79.8402 196.849 101.218 195.831C111.822 195.325 122.839 195.048 134.145 195.024L178.532 122.492L214.386 181.082C202.987 179.609 190.914 178.457 178.326 177.67L167.296 195.695C189.123 196.64 209.273 198.547 226.694 201.194C234.458 202.374 241.681 203.701 248.268 205.155C254.016 206.425 259.281 207.791 264 209.242L178.506 69.5359L112.779 176.94C92.1409 177.751 72.6577 179.528 54.9737 182.095L151.181 24.884L135.953 0L8 209.087Z" fill="#C4C4C4"/>
</mask>
<g mask="url(#mask0_40_2)">
<path d="M-23 262.015L345 262.015L345 -27.7756L-22.9999 -27.7756L-23 262.015Z" fill="#247BAC"/>
<path d="M345 60.0775L314.333 39.8837L283.667 80.2712L253 23.0556L222.333 56.7118L191.667 60.0774L161 43.2493L130.333 60.0774L99.6667 6.22752L69 39.8837L38.3334 76.9055L7.66671 56.7118L-22.9999 9.59314L-23 262.015L345 262.015L345 60.0775Z" fill="#87898A"/>
<path d="M345 80.2712L314.333 93.7337L283.667 110.562L253 100.465L222.333 66.8087L191.667 120.659L161 56.7119L130.333 66.8087L99.6667 120.659L69 83.6368L38.3334 117.293L7.6667 93.7337L-23 97.0993L-23 262.015L345 262.015L345 80.2712Z" fill="#2E6E93"/>
<path d="M345 137.487L314.333 137.487L283.667 161.046L253 117.293L222.333 174.509L191.667 150.949L161 157.68L130.333 147.584L99.6667 127.39L69 177.874L38.3334 161.046L7.6667 127.39L-23 124.024L-23 262.015L345 262.015L345 137.487Z" fill="#7A2D95"/>
<path d="M345 214.896L314.333 201.433L283.667 177.874L253 221.627L222.333 221.627L191.667 218.262L161 218.262L130.333 214.896L99.6667 177.874L69 198.068L38.3333 211.53L7.66669 193L-23 204.799L-23 262.015L345 262.015L345 214.896Z" fill="#7B7D7E"/>
</g>
</g>
<defs>
<filter id="filter0_d_40_2" x="0" y="0" width="272" height="235.242" filterUnits="userSpaceOnUse" color-interpolation-filters="sRGB">
<feFlood flood-opacity="0" result="BackgroundImageFix"/>
<feColorMatrix in="SourceAlpha" type="matrix" values="0 0 0 0 0 0 0 0 0 0 0 0 0 0 0 0 0 0 127 0" result="hardAlpha"/>
<feOffset dy="18"/>
<feGaussianBlur stdDeviation="4"/>
<feComposite in2="hardAlpha" operator="out"/>
<feColorMatrix type="matrix" values="0 0 0 0 0 0 0 0 0 0 0 0 0 0 0 0 0 0 0.6 0"/>
<feBlend mode="normal" in2="BackgroundImageFix" result="effect1_dropShadow_40_2"/>
<feBlend mode="normal" in="SourceGraphic" in2="effect1_dropShadow_40_2" result="shape"/>
</filter>
</defs>
</svg>
