<svg width="2560" height="148" viewBox="0 0 2560 148" fill="none" xmlns="http://www.w3.org/2000/svg">
<g filter="url(#filter0_b_141_65)">
<path d="M0 106H225.5L327 128.5L431.5 121.5L537.5 128.5L640 121.5L853.333 140L1077.5 117.5L1174.75 132L1280 121.5L1505 108L1629 130.5L1941 116.5L2110.5 147.5L2178 124.5L2262 140L2391 111L2560 120.5V0L2346.67 0L2133.33 0L1920 0L1706.67 0L1493.33 0L1280 0L1066.67 0L853.333 0L640 0L426.667 0L213.333 0L0 0L0 106Z" fill="#C530FA" fill-opacity="0.75"/>
<path d="M0 100.261L231.5 90.5L433 113.5L653 108L889 112L945.5 85.5L1076 100H1291L1404.5 107.5L1510.5 91H1618.5L1719.5 114L1941 100L2142.5 120L2267 105L2339 114.5L2463 91.5H2560V0L2346.67 0L2133.33 0L1920 0L1706.67 0L1493.33 0L1280 0L1066.67 0L853.333 0L640 0L426.667 0L213.333 0L0 0L0 100.261Z" fill="#7A2D95"/>
<path d="M0 82.1395L213.333 72L434 90.5L634.5 99L807.5 95.5L888 60.5L1076 91.5L1280 82.1395L1511 74.5L1711 91.5L1951.5 85.5L2133.33 97.7851L2346.67 82.1395H2560V0L2346.67 0L2133.33 0L1920 0L1706.67 0L1493.33 0L1280 0L1066.67 0L853.333 0L640 0L426.667 0L213.333 0L0 0L0 82.1395Z" fill="#247BAC"/>
<path d="M0 74L203 47L321 81.5L568.5 71L718 92.5L886 34.5L1069 83.5L1300 75L1499 51.5865L1717.5 82.5385L1924 49.5L2135.5 91.5L2359 75L2560 61.9039V0L2346.67 0L2133.33 0L1920 0L1706.67 0L1493.33 0L1280 0L1066.67 0L853.333 0L640 0L426.667 0L213.333 0L0 0L0 74Z" fill="#2E6E93"/>
<path d="M0 54.0928L183.5 32.4557L426.667 28.1282L640 54.0928L885.5 19.5H1066.67L1237.5 54.0928L1493.33 32.4557L1706.67 28.1282H1900L2133.33 54.0928L2346.67 19.5L2560 36.7831V0L2346.67 0L2133.33 0L1920 0L1706.67 0L1493.33 0L1280 0L1066.67 0L853.333 0L640 0L426.667 0L213.333 0L0 0L0 54.0928Z" fill="#87898A"/>
</g>
<defs>
<filter id="filter0_b_141_65" x="-4" y="-4" width="2568" height="155.5" filterUnits="userSpaceOnUse" color-interpolation-filters="sRGB">
<feFlood flood-opacity="0" result="BackgroundImageFix"/>
<feGaussianBlur in="BackgroundImage" stdDeviation="2"/>
<feComposite in2="SourceAlpha" operator="in" result="effect1_backgroundBlur_141_65"/>
<feBlend mode="normal" in="SourceGraphic" in2="effect1_backgroundBlur_141_65" result="shape"/>
</filter>
</defs>
</svg>
