<svg width="2560" height="140" viewBox="0 0 2560 140" fill="none" xmlns="http://www.w3.org/2000/svg">
<g filter="url(#filter0_b_141_51)">
<path d="M0 113.258L213.333 124.27L426.667 122.697L640 140L853.333 127.416L1066.67 108.539H1280L1493.33 122.697H1706.67L1920 127.416L2133.33 135.281L2346.67 113.258L2560 108.539V0L2346.67 0L2133.33 0L1920 0L1706.67 0L1493.33 0L1280 0L1066.67 0L853.333 0L640 0L426.667 0L213.333 0L0 0L0 113.258Z" fill="#C530FA" fill-opacity="0.75"/>
<path d="M0 100.261L213.333 122.541L426.667 100.261L640 131.825L853.333 100.261L1066.67 111.401L1280 84.7376L1493.33 111.401L1706.67 102.118L1920 122.541L2133.33 102.118L2346.67 100.261L2560 111.401V0L2346.67 0L2133.33 0L1920 0L1706.67 0L1493.33 0L1280 0L1066.67 0L853.333 0L640 0L426.667 0L213.333 0L0 0L0 100.261Z" fill="#7A2D95"/>
<path d="M0 82.1395L213.333 103.652L426.667 97.7851L640 113.431L853.333 82.1395L1066.67 97.7851L1280 82.1395L1493.33 95.8294L1706.67 103.652L1920 95.8294L2133.33 97.7851L2346.67 82.1395L2560 95.8294V0L2346.67 0L2133.33 0L1920 0L1706.67 0L1493.33 0L1280 0L1066.67 0L853.333 0L640 0L426.667 0L213.333 0L0 0L0 82.1395Z" fill="#247BAC"/>
<path d="M0 62.5L201.373 98.1022L426.667 82.5385L640 62.5L734.5 82.5385L853.333 53.65L1066.67 51.5865H1280L1493.33 82.5385L1706.67 61.9039L1920 82.5385L2133.33 51.5865L2346.67 61.9039L2560 82.5385V0L2346.67 0L2133.33 0L1920 0L1706.67 0L1493.33 0L1280 0L1066.67 0L853.333 0L640 0L426.667 0L213.333 0L0 0L0 62.5Z" fill="#2E6E93"/>
<path d="M0 54.0928H101.5L202.5 38.5L302 79.5L426.667 54.0928L537 17.5L640 41.1105L766.5 28.5L891.16 54.0928L1066.67 28.1282L1233.83 32.4557L1493.33 54.0928L1607 28.1282L1706.67 54.0928L1800 32.4557L1892.46 41.1105L2014.5 54.0928L2133.33 32.4557L2346.67 38.9468L2470 54.0928L2560 36.7831V0L2346.67 0L2133.33 0L1920 0L1706.67 0L1493.33 0L1280 0L1066.67 0L853.333 0L640 0L426.667 0L213.333 0L0 0L0 54.0928Z" fill="#87898A"/>
</g>
<defs>
<filter id="filter0_b_141_51" x="-4" y="-4" width="2568" height="148" filterUnits="userSpaceOnUse" color-interpolation-filters="sRGB">
<feFlood flood-opacity="0" result="BackgroundImageFix"/>
<feGaussianBlur in="BackgroundImage" stdDeviation="2"/>
<feComposite in2="SourceAlpha" operator="in" result="effect1_backgroundBlur_141_51"/>
<feBlend mode="normal" in="SourceGraphic" in2="effect1_backgroundBlur_141_51" result="shape"/>
</filter>
</defs>
</svg>
