<svg width="2560" height="140" viewBox="0 0 2560 140" fill="none" xmlns="http://www.w3.org/2000/svg">
<g filter="url(#filter0_b_128_23)">
<path d="M2560 26.7416L2346.67 15.7303L2133.33 17.3034L1920 -9.2446e-07L1706.67 12.5843L1493.33 31.4607L1280 31.4607L1066.67 17.3034L853.333 17.3034L640 12.5843L426.667 4.71911L213.333 26.7416L0 31.4607V140L213.333 140L426.667 140L640 140L853.333 140L1066.67 140H1280L1493.33 140L1706.67 140L1920 140L2133.33 140L2346.67 140L2560 140V26.7416Z" fill="#C530FA" fill-opacity="0.75"/>
<path d="M2560 39.7389L2346.67 17.4586L2133.33 39.7389L1920 8.17518L1706.67 39.7389L1493.33 28.5987L1280 55.2624L1066.67 28.5987L853.333 37.8823L640 17.4586L426.667 37.8822L213.333 39.7389L0 28.5987V140L213.333 140L426.667 140L640 140L853.333 140L1066.67 140H1280L1493.33 140L1706.67 140L1920 140L2133.33 140L2346.67 140L2560 140V39.7389Z" fill="#7A2D95"/>
<path d="M2560 57.8605L2346.67 36.3478L2133.33 42.2149L1920 26.5693L1706.67 57.8605L1493.33 42.2149L1280 57.8605L1066.67 44.1706L853.333 36.3478L640 44.1706L426.667 42.2149L213.333 57.8605L0 44.1706V140L213.333 140L426.667 140L640 140L853.333 140L1066.67 140H1280L1493.33 140L1706.67 140L1920 140L2133.33 140L2346.67 140L2560 140V57.8605Z" fill="#247BAC"/>
<path d="M2560 86.35L2358.63 41.8978L2133.33 57.4615L1920 77.5L1825.5 57.4615L1706.67 86.35L1493.33 88.4135L1280 88.4135L1066.67 57.4615L853.333 78.0961L640 57.4615L426.667 88.4135L213.333 78.0961L0 57.4615V140L213.333 140L426.667 140L640 140L853.333 140L1066.67 140H1280L1493.33 140L1706.67 140L1920 140L2133.33 140L2346.67 140L2560 140V86.35Z" fill="#2E6E93"/>
<path d="M2560 109.708L2458.5 85.9072L2357.5 101.5L2258 60.5L2133.33 85.9072L2023 122.5L1920 98.8895L1793.5 111.5L1668.84 85.9072L1493.33 111.872L1326.17 107.544L1066.67 85.9072L953 111.872L853.333 85.9072L760 107.544L667.536 98.8895L545.5 85.9072L426.667 107.544L213.333 101.053L90 85.9072L0 103.217V140L213.333 140L426.667 140L640 140L853.333 140L1066.67 140H1280L1493.33 140L1706.67 140L1920 140L2133.33 140L2346.67 140L2560 140V109.708Z" fill="#87898A"/>
</g>
<defs>
<filter id="filter0_b_128_23" x="-4" y="-4" width="2568" height="148" filterUnits="userSpaceOnUse" color-interpolation-filters="sRGB">
<feFlood flood-opacity="0" result="BackgroundImageFix"/>
<feGaussianBlur in="BackgroundImage" stdDeviation="2"/>
<feComposite in2="SourceAlpha" operator="in" result="effect1_backgroundBlur_128_23"/>
<feBlend mode="normal" in="SourceGraphic" in2="effect1_backgroundBlur_128_23" result="shape"/>
</filter>
</defs>
</svg>
