<svg width="2560" height="148" viewBox="0 0 2560 148" fill="none" xmlns="http://www.w3.org/2000/svg">
<g filter="url(#filter0_b_141_9)">
<path d="M2560 42L2334.5 42L2233 19.5L2128.5 26.5L2022.5 19.5L1920 26.5L1706.67 8L1482.5 30.5L1385.25 16L1280 26.5L1055 40L931 17.5L619 31.5L449.5 0.5L382 23.5L298 8L169 37L0 27.5V148L213.333 148L426.667 148L640 148L853.333 148L1066.67 148H1280L1493.33 148L1706.67 148L1920 148L2133.33 148L2346.67 148L2560 148V42Z" fill="#C530FA" fill-opacity="0.75"/>
<path d="M2560 47.7389L2328.5 57.5L2127 34.5L1907 40L1671 36L1614.5 62.5L1484 48L1269 48L1155.5 40.5L1049.5 57L941.5 57L840.5 34L619 48L417.5 28L293 43L221 33.5L97 56.5L0 56.5V148L213.333 148L426.667 148L640 148L853.333 148L1066.67 148H1280L1493.33 148L1706.67 148L1920 148L2133.33 148L2346.67 148L2560 148V47.7389Z" fill="#7A2D95"/>
<path d="M2560 65.8605L2346.67 76L2126 57.5L1925.5 49L1752.5 52.5L1672 87.5L1484 56.5L1280 65.8605L1049 73.5L849 56.5L608.5 62.5L426.667 50.2149L213.333 65.8605L0 65.8605V148L213.333 148L426.667 148L640 148L853.333 148L1066.67 148H1280L1493.33 148L1706.67 148L1920 148L2133.33 148L2346.67 148L2560 148V65.8605Z" fill="#247BAC"/>
<path d="M2560 74L2357 101L2239 66.5L1991.5 77L1842 55.5L1674 113.5L1491 64.5L1260 73L1061 96.4135L842.5 65.4615L636 98.5L424.5 56.5L201 73L0 86.0961V148L213.333 148L426.667 148L640 148L853.333 148L1066.67 148H1280L1493.33 148L1706.67 148L1920 148L2133.33 148L2346.67 148L2560 148V74Z" fill="#2E6E93"/>
<path d="M2560 93.9072L2376.5 115.544L2133.33 119.872L1920 93.9072L1674.5 128.5L1493.33 128.5L1322.5 93.9072L1066.67 115.544L853.333 119.872L660 119.872L426.667 93.9072L213.333 128.5L0 111.217V148L213.333 148L426.667 148L640 148L853.333 148L1066.67 148H1280L1493.33 148L1706.67 148L1920 148L2133.33 148L2346.67 148L2560 148V93.9072Z" fill="#87898A"/>
</g>
<defs>
<filter id="filter0_b_141_9" x="-4" y="-3.5" width="2568" height="155.5" filterUnits="userSpaceOnUse" color-interpolation-filters="sRGB">
<feFlood flood-opacity="0" result="BackgroundImageFix"/>
<feGaussianBlur in="BackgroundImage" stdDeviation="2"/>
<feComposite in2="SourceAlpha" operator="in" result="effect1_backgroundBlur_141_9"/>
<feBlend mode="normal" in="SourceGraphic" in2="effect1_backgroundBlur_141_9" result="shape"/>
</filter>
</defs>
</svg>
